<?xml version="1.0" standalone="no"?>
<!DOCTYPE svg PUBLIC "-//W3C//DTD SVG 20010904//EN"
 "http://www.w3.org/TR/2001/REC-SVG-20010904/DTD/svg10.dtd">
<svg version="1.0" xmlns="http://www.w3.org/2000/svg"
 width="160.000000pt" height="160.000000pt" viewBox="0 0 160.000000 160.000000"
 preserveAspectRatio="xMidYMid meet">
<metadata>
Created by potrace 1.14, written by Peter Selinger 2001-2017
</metadata>
<g transform="translate(0.000000,160.000000) scale(0.100000,-0.100000)"
fill="#000000" stroke="none">
<path d="M324 1441 c-3 -3 -9 -6 -12 -7 -88 -11 -172 -151 -158 -265 8 -61 37
-139 71 -191 34 -50 28 -78 -31 -159 -49 -66 -81 -123 -91 -160 -13 -52 -9
-164 8 -214 50 -152 114 -223 243 -269 22 -8 123 -17 216 -20 50 -1 76 -8 110
-27 100 -58 159 -57 256 3 33 21 53 25 124 26 181 2 264 28 347 108 28 27 83
144 97 204 29 129 4 226 -93 360 -56 76 -59 97 -22 155 67 105 84 235 43 326
-23 53 -86 111 -136 126 -35 11 -121 11 -162 0 -26 -6 -75 -33 -131 -71 -38
-25 -47 -27 -95 -20 -69 10 -139 10 -210 0 -53 -8 -60 -6 -87 17 -60 50 -141
82 -213 83 -37 1 -70 -1 -74 -5z"/>
</g>
</svg>
